BitterPro-Thin.ufo
<glyph name="S" format="2">
  <advance width="598"/>
  <unicode hex="0053"/>
  <anchor x="305" y="0" name="bottom"/>
  <anchor x="311" y="692" name="top"/>
  <outline>
    <contour>
      <point x="122" y="528" type="curve" smooth="yes"/>
      <point x="122" y="635"/>
      <point x="216" y="678"/>
      <point x="317" y="678" type="curve" smooth="yes"/>
      <point x="372" y="678"/>
      <point x="429" y="665"/>
      <point x="474" y="644" type="curve"/>
      <point x="466" y="653" type="line"/>
      <point x="475" y="522" type="line"/>
      <point x="490" y="522" type="line"/>
      <point x="496" y="659" type="line"/>
      <point x="438" y="685"/>
      <point x="377" y="698"/>
      <point x="320" y="698" type="curve" smooth="yes"/>
      <point x="195" y="698"/>
      <point x="100" y="640"/>
      <point x="100" y="524" type="curve" smooth="yes"/>
      <point x="100" y="290"/>
      <point x="487" y="402"/>
      <point x="487" y="181" type="curve" smooth="yes"/>
      <point x="487" y="70"/>
      <point x="390" y="15"/>
      <point x="276" y="15" type="curve" smooth="yes"/>
      <point x="223" y="15"/>
      <point x="166" y="27"/>
      <point x="113" y="51" type="curve"/>
      <point x="118" y="41" type="line"/>
      <point x="106" y="175" type="line"/>
      <point x="91" y="175" type="line"/>
      <point x="85" y="36" type="line"/>
      <point x="146" y="8"/>
      <point x="211" y="-6"/>
      <point x="273" y="-6" type="curve" smooth="yes"/>
      <point x="401" y="-6"/>
      <point x="509" y="55"/>
      <point x="509" y="183" type="curve" smooth="yes"/>
      <point x="509" y="424"/>
      <point x="122" y="312"/>
    </contour>
  </outline>
</glyph>
<glyph name="a" format="2">
  <advance width="534"/>
  <unicode hex="0061"/>
  <anchor x="268" y="0" name="bottom"/>
  <anchor x="429" y="0" name="ogonek"/>
  <anchor x="260" y="522" name="top"/>
  <outline>
    <contour>
      <point x="419" y="19" type="line"/>
      <point x="419" y="394" type="line" smooth="yes"/>
      <point x="419" y="490"/>
      <point x="358" y="528"/>
      <point x="268" y="528" type="curve" smooth="yes"/>
      <point x="216" y="528"/>
      <point x="155" y="515"/>
      <point x="93" y="491" type="curve"/>
      <point x="101" y="392" type="line"/>
      <point x="118" y="392" type="line"/>
      <point x="125" y="490" type="line"/>
      <point x="118" y="479" type="line"/>
      <point x="171" y="499"/>
      <point x="223" y="509"/>
      <point x="267" y="509" type="curve" smooth="yes"/>
      <point x="347" y="509"/>
      <point x="399" y="475"/>
      <point x="399" y="391" type="curve" smooth="yes"/>
      <point x="399" y="268" type="line"/>
      <point x="406" y="275" type="line"/>
      <point x="248" y="275" type="line" smooth="yes"/>
      <point x="149" y="275"/>
      <point x="70" y="254"/>
      <point x="70" y="136" type="curve" smooth="yes"/>
      <point x="70" y="40"/>
      <point x="122" y="-6"/>
      <point x="198" y="-6" type="curve" smooth="yes"/>
      <point x="266" y="-6"/>
      <point x="342" y="30"/>
      <point x="404" y="91" type="curve"/>
      <point x="400" y="94" type="line"/>
      <point x="404" y="-2" type="line"/>
      <point x="509" y="2" type="line"/>
      <point x="509" y="17" type="line"/>
      <point x="412" y="27" type="line"/>
    </contour>
    <contour>
      <point x="91" y="140" type="curve" smooth="yes"/>
      <point x="91" y="227"/>
      <point x="137" y="256"/>
      <point x="250" y="256" type="curve" smooth="yes"/>
      <point x="406" y="256" type="line"/>
      <point x="399" y="263" type="line"/>
      <point x="399" y="99" type="line"/>
      <point x="404" y="110" type="line"/>
      <point x="337" y="48"/>
      <point x="261" y="13"/>
      <point x="201" y="13" type="curve" smooth="yes"/>
      <point x="137" y="13"/>
      <point x="91" y="53"/>
    </contour>
  </outline>
</glyph>
<glyph name="u" format="2">
  <advance width="608"/>
  <unicode hex="0075"/>
  <anchor x="300" y="0" name="bottom"/>
  <anchor x="580" y="0" name="bottomright"/>
  <anchor x="496" y="0" name="ogonek"/>
  <anchor x="293" y="522" name="top"/>
  <anchor x="486" y="524" name="topright"/>
  <outline>
    <contour>
      <point x="261" y="-6" type="curve" smooth="yes"/>
      <point x="326" y="-6"/>
      <point x="403" y="25"/>
      <point x="470" y="95" type="curve"/>
      <point x="466" y="98" type="line"/>
      <point x="471" y="-2" type="line"/>
      <point x="576" y="2" type="line"/>
      <point x="576" y="17" type="line"/>
      <point x="479" y="27" type="line"/>
      <point x="486" y="23" type="line"/>
      <point x="486" y="525" type="line"/>
      <point x="376" y="520" type="line"/>
      <point x="376" y="505" type="line"/>
      <point x="473" y="491" type="line"/>
      <point x="466" y="500" type="line"/>
      <point x="466" y="108" type="line"/>
      <point x="470" y="119" type="line"/>
      <point x="401" y="46"/>
      <point x="324" y="13"/>
      <point x="262" y="13" type="curve" smooth="yes"/>
      <point x="183" y="13"/>
      <point x="133" y="59"/>
      <point x="133" y="159" type="curve" smooth="yes"/>
      <point x="133" y="525" type="line"/>
      <point x="23" y="520" type="line"/>
      <point x="23" y="505" type="line"/>
      <point x="120" y="491" type="line"/>
      <point x="113" y="499" type="line"/>
      <point x="113" y="154" type="line" smooth="yes"/>
      <point x="113" y="45"/>
      <point x="173" y="-6"/>
    </contour>
  </outline>
</glyph>
<glyph name="asciitilde" format="2">
  <advance width="629"/>
  <unicode hex="007E"/>
  <guideline x="213" y="330" angle="0"/>
  <guideline x="213" y="257" angle="0"/>
  <guideline x="213" y="257" angle="0"/>
  <guideline x="213" y="257" angle="0"/>
  <outline>
    <contour>
      <point x="431" y="302" type="curve" smooth="yes"/>
      <point x="477" y="302"/>
      <point x="516" y="327"/>
      <point x="549" y="375" type="curve"/>
      <point x="535" y="384" type="line"/>
      <point x="500" y="335"/>
      <point x="466" y="320"/>
      <point x="432" y="320" type="curve" smooth="yes"/>
      <point x="358" y="320"/>
      <point x="283" y="402"/>
      <point x="198" y="402" type="curve" smooth="yes"/>
      <point x="149" y="402"/>
      <point x="111" y="374"/>
      <point x="80" y="329" type="curve"/>
      <point x="95" y="320" type="line"/>
      <point x="130" y="370"/>
      <point x="164" y="384"/>
      <point x="197" y="384" type="curve" smooth="yes"/>
      <point x="272" y="384"/>
      <point x="346" y="302"/>
    </contour>
  </outline>
</glyph>
<glyph name="plusminus" format="2">
  <advance width="615"/>
  <unicode hex="00B1"/>
  <guideline x="91" y="245" angle="90"/>
  <guideline x="525" y="245" angle="90"/>
  <outline>
    <contour>
      <point x="307" y="393" type="line"/>
      <point x="91" y="393" type="line"/>
      <point x="91" y="374" type="line"/>
      <point x="307" y="374" type="line"/>
      <point x="298" y="383" type="line"/>
      <point x="298" y="159" type="line"/>
      <point x="317" y="159" type="line"/>
      <point x="317" y="383" type="line"/>
      <point x="308" y="374" type="line"/>
      <point x="525" y="374" type="line"/>
      <point x="525" y="393" type="line"/>
      <point x="308" y="393" type="line"/>
      <point x="317" y="384" type="line"/>
      <point x="317" y="608" type="line"/>
      <point x="298" y="608" type="line"/>
      <point x="298" y="384" type="line"/>
    </contour>
    <contour>
      <point x="525" y="67" type="line"/>
      <point x="91" y="67" type="line"/>
      <point x="91" y="48" type="line"/>
      <point x="525" y="48" type="line"/>
    </contour>
  </outline>
</glyph>
<glyph name="Oslash" format="2">
  <advance width="757"/>
  <unicode hex="00D8"/>
  <guideline x="392" y="592" angle="90"/>
  <anchor x="383" y="692" name="top"/>
  <outline>
    <contour>
      <point x="630" y="762" type="line"/>
      <point x="551" y="638" type="line"/>
      <point x="546" y="629" type="line"/>
      <point x="195" y="76" type="line"/>
      <point x="190" y="68" type="line"/>
      <point x="110" y="-59" type="line"/>
      <point x="127" y="-70" type="line"/>
      <point x="206" y="55" type="line"/>
      <point x="210" y="62" type="line"/>
      <point x="562" y="619" type="line"/>
      <point x="567" y="626" type="line"/>
      <point x="647" y="752" type="line"/>
    </contour>
    <contour>
      <point x="371" y="-6" type="curve" smooth="yes"/>
      <point x="536" y="-6"/>
      <point x="679" y="123"/>
      <point x="679" y="356" type="curve" smooth="yes"/>
      <point x="679" y="591"/>
      <point x="533" y="698"/>
      <point x="383" y="698" type="curve" smooth="yes"/>
      <point x="225" y="698"/>
      <point x="79" y="581"/>
      <point x="79" y="341" type="curve" smooth="yes"/>
      <point x="79" y="107"/>
      <point x="217" y="-6"/>
    </contour>
    <contour>
      <point x="372" y="14" type="curve" smooth="yes"/>
      <point x="229" y="14"/>
      <point x="101" y="121"/>
      <point x="101" y="342" type="curve" smooth="yes"/>
      <point x="101" y="568"/>
      <point x="235" y="678"/>
      <point x="382" y="678" type="curve" smooth="yes"/>
      <point x="527" y="678"/>
      <point x="657" y="570"/>
      <point x="657" y="353" type="curve" smooth="yes"/>
      <point x="657" y="129"/>
      <point x="520" y="14"/>
    </contour>
  </outline>
</glyph>
<glyph name="icircumflex" format="2">
  <advance width="278"/>
  <unicode hex="00EE"/>
  <outline>
    <contour>
      <point x="33" y="637" type="line"/>
      <point x="142" y="741" type="line"/>
      <point x="133" y="741" type="line"/>
      <point x="246" y="637" type="line"/>
      <point x="258" y="650" type="line"/>
      <point x="145" y="764" type="line"/>
      <point x="130" y="764" type="line"/>
      <point x="21" y="650" type="line"/>
    </contour>
    <component base="idotless"/>
  </outline>
</glyph>
<glyph name="breve" format="2">
  <advance width="390"/>
  <unicode hex="02D8"/>
  <outline>
    <contour>
      <point x="196" y="640" type="curve" smooth="yes"/>
      <point x="260" y="640"/>
      <point x="302" y="680"/>
      <point x="302" y="739" type="curve"/>
      <point x="284" y="738" type="line"/>
      <point x="280" y="692"/>
      <point x="246" y="662"/>
      <point x="197" y="662" type="curve" smooth="yes"/>
      <point x="148" y="662"/>
      <point x="111" y="693"/>
      <point x="106" y="739" type="curve"/>
      <point x="88" y="737" type="line"/>
      <point x="90" y="679"/>
      <point x="133" y="640"/>
    </contour>
  </outline>
</glyph>
<glyph name="hookabovecomb" format="2">
  <unicode hex="0309"/>
  <anchor x="136" y="522" name="_top"/>
  <anchor x="136" y="692" name="top"/>
  <outline>
    <contour>
      <point x="125" y="613" type="line"/>
      <point x="145" y="613" type="line"/>
      <point x="145" y="654" type="line"/>
      <point x="193" y="660"/>
      <point x="218" y="684"/>
      <point x="218" y="720" type="curve" smooth="yes"/>
      <point x="218" y="761"/>
      <point x="184" y="780"/>
      <point x="142" y="780" type="curve" smooth="yes"/>
      <point x="122" y="780"/>
      <point x="101" y="776"/>
      <point x="82" y="768" type="curve"/>
      <point x="87" y="752" type="line"/>
      <point x="106" y="758"/>
      <point x="125" y="761"/>
      <point x="141" y="761" type="curve" smooth="yes"/>
      <point x="173" y="761"/>
      <point x="195" y="748"/>
      <point x="195" y="718" type="curve" smooth="yes"/>
      <point x="195" y="685"/>
      <point x="167" y="671"/>
      <point x="125" y="669" type="curve"/>
    </contour>
  </outline>
</glyph>
<glyph name="dblgravecomb" format="2">
  <unicode hex="030F"/>
  <anchor x="226" y="522" name="_top"/>
  <anchor x="191" y="692" name="top"/>
  <outline>
    <contour>
      <point x="160" y="634" type="line"/>
      <point x="90" y="758" type="line"/>
      <point x="115" y="772" type="line"/>
      <point x="176" y="643" type="line"/>
    </contour>
    <contour>
      <point x="271" y="634" type="line"/>
      <point x="203" y="759" type="line"/>
      <point x="229" y="772" type="line"/>
      <point x="287" y="642" type="line"/>
    </contour>
  </outline>
</glyph>
<glyph name="dje-cy" format="2">
  <advance width="579"/>
  <unicode hex="0452"/>
  <guideline x="475" y="-34" angle="90"/>
  <guideline x="495" y="-34" angle="90"/>
  <outline>
    <contour>
      <point x="377" y="-236" type="line"/>
      <point x="481" y="-227"/>
      <point x="495" y="-160"/>
      <point x="495" y="-39" type="curve" smooth="yes"/>
      <point x="495" y="301" type="line" smooth="yes"/>
      <point x="495" y="410"/>
      <point x="434" y="461"/>
      <point x="348" y="461" type="curve" smooth="yes"/>
      <point x="281" y="461"/>
      <point x="205" y="430"/>
      <point x="138" y="360" type="curve"/>
      <point x="142" y="357" type="line"/>
      <point x="142" y="765" type="line"/>
      <point x="32" y="760" type="line"/>
      <point x="32" y="745" type="line"/>
      <point x="129" y="731" type="line"/>
      <point x="122" y="739" type="line"/>
      <point x="122" y="21" type="line"/>
      <point x="129" y="29" type="line"/>
      <point x="32" y="15" type="line"/>
      <point x="32" y="0" type="line"/>
      <point x="232" y="0" type="line"/>
      <point x="232" y="15" type="line"/>
      <point x="135" y="29" type="line"/>
      <point x="142" y="21" type="line"/>
      <point x="142" y="347" type="line"/>
      <point x="138" y="336" type="line"/>
      <point x="207" y="409"/>
      <point x="283" y="442"/>
      <point x="348" y="442" type="curve" smooth="yes"/>
      <point x="424" y="442"/>
      <point x="475" y="396"/>
      <point x="475" y="296" type="curve" smooth="yes"/>
      <point x="475" y="-48" type="line" smooth="yes"/>
      <point x="475" y="-166"/>
      <point x="451" y="-210"/>
      <point x="374" y="-219" type="curve"/>
    </contour>
    <contour>
      <point x="32" y="585" type="line"/>
      <point x="302" y="585" type="line"/>
      <point x="302" y="604" type="line"/>
      <point x="32" y="604" type="line"/>
    </contour>
  </outline>
</glyph>
<glyph name="kahook-cy" format="2">
  <advance width="547"/>
  <unicode hex="04C4"/>
  <outline>
    <contour>
      <point x="289" y="271" type="line"/>
      <point x="406" y="190"/>
      <point x="486" y="72"/>
      <point x="486" y="-37" type="curve" smooth="yes"/>
      <point x="486" y="-109"/>
      <point x="451" y="-174"/>
      <point x="373" y="-221" type="curve"/>
      <point x="382" y="-236" type="line"/>
      <point x="469" y="-185"/>
      <point x="507" y="-114"/>
      <point x="507" y="-37" type="curve" smooth="yes"/>
      <point x="507" y="75"/>
      <point x="426" y="196"/>
      <point x="301" y="285" type="curve"/>
      <point x="307" y="272" type="line"/>
      <point x="435" y="502" type="line"/>
      <point x="425" y="495" type="line"/>
      <point x="521" y="511" type="line"/>
      <point x="521" y="525" type="line"/>
      <point x="322" y="520" type="line"/>
      <point x="322" y="506" type="line"/>
      <point x="419" y="495" type="line"/>
      <point x="416" y="502" type="line"/>
      <point x="288" y="276" type="line"/>
      <point x="298" y="282" type="line"/>
      <point x="148" y="282" type="line"/>
      <point x="155" y="275" type="line"/>
      <point x="155" y="502" type="line"/>
      <point x="147" y="495" type="line"/>
      <point x="245" y="511" type="line"/>
      <point x="245" y="525" type="line"/>
      <point x="45" y="520" type="line"/>
      <point x="45" y="506" type="line"/>
      <point x="141" y="495" type="line"/>
      <point x="135" y="502" type="line"/>
      <point x="135" y="21" type="line"/>
      <point x="142" y="29" type="line"/>
      <point x="45" y="15" type="line"/>
      <point x="45" y="0" type="line"/>
      <point x="259" y="0" type="line"/>
      <point x="259" y="15" type="line"/>
      <point x="148" y="29" type="line"/>
      <point x="155" y="21" type="line"/>
      <point x="155" y="270" type="line"/>
      <point x="148" y="263" type="line"/>
      <point x="303" y="263" type="line"/>
    </contour>
  </outline>
</glyph>
<glyph name="reversedze-cy" format="2">
  <advance width="490"/>
  <unicode hex="0511"/>
  <outline>
    <contour>
      <point x="441" y="40" type="curve"/>
      <point x="432" y="56" type="line"/>
      <point x="383" y="28"/>
      <point x="324" y="13"/>
      <point x="268" y="13" type="curve" smooth="yes"/>
      <point x="174" y="13"/>
      <point x="92" y="55"/>
      <point x="92" y="145" type="curve" smooth="yes"/>
      <point x="92" y="214"/>
      <point x="139" y="270"/>
      <point x="277" y="270" type="curve" smooth="yes"/>
      <point x="346" y="270" type="line"/>
      <point x="346" y="289" type="line"/>
      <point x="282" y="289" type="line" smooth="yes"/>
      <point x="159" y="289"/>
      <point x="105" y="331"/>
      <point x="105" y="401" type="curve" smooth="yes"/>
      <point x="105" y="478"/>
      <point x="170" y="508"/>
      <point x="259" y="508" type="curve" smooth="yes"/>
      <point x="302" y="508"/>
      <point x="353" y="501"/>
      <point x="404" y="487" type="curve"/>
      <point x="395" y="501" type="line"/>
      <point x="407" y="395" type="line"/>
      <point x="426" y="395" type="line"/>
      <point x="429" y="500" type="line"/>
      <point x="372" y="518"/>
      <point x="312" y="527"/>
      <point x="262" y="527" type="curve" smooth="yes"/>
      <point x="162" y="527"/>
      <point x="85" y="492"/>
      <point x="85" y="401" type="curve" smooth="yes"/>
      <point x="85" y="334"/>
      <point x="127" y="285"/>
      <point x="233" y="278" type="curve"/>
      <point x="233" y="279" type="line"/>
      <point x="123" y="272"/>
      <point x="71" y="222"/>
      <point x="71" y="144" type="curve" smooth="yes"/>
      <point x="71" y="43"/>
      <point x="159" y="-6"/>
      <point x="263" y="-6" type="curve" smooth="yes"/>
      <point x="322" y="-6"/>
      <point x="385" y="10"/>
    </contour>
  </outline>
</glyph>
<glyph name="Tlinebelow" format="2">
  <advance width="558"/>
  <unicode hex="1E6E"/>
  <guideline x="155" y="191" angle="90"/>
  <guideline x="405" y="191" angle="90"/>
  <outline>
    <contour>
      <point x="414.97650000000004" y="-107.0" type="line"/>
      <point x="166.2315" y="-107.0" type="line"/>
      <point x="166.2315" y="-128.0" type="line"/>
      <point x="414.97650000000004" y="-128.0" type="line"/>
    </contour>
    <component base="T"/>
  </outline>
</glyph>
<glyph name="quoteleft" format="2">
  <advance width="180"/>
  <unicode hex="2018"/>
  <guideline x="-48" y="607" angle="0"/>
  <outline>
    <contour>
      <point x="110" y="633" type="curve" smooth="yes"/>
      <point x="110" y="651"/>
      <point x="94" y="655"/>
      <point x="94" y="674" type="curve" smooth="yes"/>
      <point x="94" y="688"/>
      <point x="99" y="716"/>
      <point x="125" y="765" type="curve"/>
      <point x="113" y="773" type="line"/>
      <point x="75" y="712"/>
      <point x="60" y="658"/>
      <point x="60" y="637" type="curve" smooth="yes"/>
      <point x="60" y="617"/>
      <point x="73" y="607"/>
      <point x="86" y="607" type="curve" smooth="yes"/>
      <point x="98" y="607"/>
      <point x="110" y="616"/>
    </contour>
  </outline>
</glyph>
<glyph name="quotedblleft" format="2">
  <advance width="296"/>
  <unicode hex="201C"/>
  <outline>
    <contour>
      <point x="110" y="650" type="curve" smooth="yes"/>
      <point x="110" y="668"/>
      <point x="94" y="672"/>
      <point x="94" y="691" type="curve" smooth="yes"/>
      <point x="94" y="705"/>
      <point x="99" y="733"/>
      <point x="125" y="782" type="curve"/>
      <point x="113" y="790" type="line"/>
      <point x="75" y="729"/>
      <point x="60" y="675"/>
      <point x="60" y="654" type="curve" smooth="yes"/>
      <point x="60" y="634"/>
      <point x="73" y="624"/>
      <point x="86" y="624" type="curve" smooth="yes"/>
      <point x="98" y="624"/>
      <point x="110" y="633"/>
    </contour>
    <contour>
      <point x="226" y="650" type="curve" smooth="yes"/>
      <point x="226" y="668"/>
      <point x="210" y="672"/>
      <point x="210" y="691" type="curve" smooth="yes"/>
      <point x="210" y="705"/>
      <point x="215" y="733"/>
      <point x="241" y="782" type="curve"/>
      <point x="229" y="790" type="line"/>
      <point x="191" y="729"/>
      <point x="176" y="675"/>
      <point x="176" y="654" type="curve" smooth="yes"/>
      <point x="176" y="634"/>
      <point x="189" y="624"/>
      <point x="202" y="624" type="curve" smooth="yes"/>
      <point x="214" y="624"/>
      <point x="226" y="633"/>
    </contour>
  </outline>
</glyph>
<glyph name="estimated" format="2">
  <advance width="754"/>
  <unicode hex="212E"/>
  <outline>
    <contour>
      <point x="383" y="3" type="curve" smooth="yes"/>
      <point x="478" y="3"/>
      <point x="560" y="48"/>
      <point x="612" y="115" type="curve"/>
      <point x="604" y="121" type="line"/>
      <point x="554" y="56"/>
      <point x="475" y="13"/>
      <point x="384" y="13" type="curve" smooth="yes"/>
      <point x="321" y="13"/>
      <point x="261" y="37"/>
      <point x="214" y="74" type="curve"/>
      <point x="219" y="64" type="line"/>
      <point x="219" y="505" type="line"/>
      <point x="214" y="494" type="line"/>
      <point x="261" y="532"/>
      <point x="320" y="554"/>
      <point x="384" y="554" type="curve" smooth="yes"/>
      <point x="448" y="554"/>
      <point x="507" y="530"/>
      <point x="554" y="493" type="curve"/>
      <point x="549" y="506" type="line"/>
      <point x="549" y="286" type="line"/>
      <point x="558" y="293" type="line"/>
      <point x="206" y="292" type="line"/>
      <point x="206" y="283" type="line"/>
      <point x="667" y="284" type="line"/>
      <point x="667" y="437"/>
      <point x="539" y="564"/>
      <point x="385" y="564" type="curve" smooth="yes"/>
      <point x="230" y="565"/>
      <point x="100" y="436"/>
      <point x="100" y="283" type="curve" smooth="yes"/>
      <point x="101" y="129"/>
      <point x="229" y="3"/>
    </contour>
  </outline>
</glyph>
<glyph name="leftArrow" format="2">
  <advance width="808"/>
  <unicode hex="2190"/>
  <outline>
    <contour>
      <point x="79" y="336" type="line"/>
      <point x="751" y="336" type="line"/>
      <point x="751" y="356" type="line"/>
      <point x="79" y="356" type="line"/>
      <point x="79" y="344" type="line"/>
      <point x="353" y="635" type="line"/>
      <point x="339" y="648" type="line"/>
      <point x="59" y="353" type="line"/>
      <point x="59" y="339" type="line"/>
      <point x="339" y="44" type="line"/>
      <point x="353" y="57" type="line"/>
      <point x="79" y="348" type="line"/>
    </contour>
  </outline>
</glyph>
<glyph name="downArrow" format="2">
  <advance width="704"/>
  <unicode hex="2193"/>
  <outline>
    <contour>
      <point x="363" y="20" type="line"/>
      <point x="363" y="692" type="line"/>
      <point x="343" y="692" type="line"/>
      <point x="343" y="20" type="line"/>
      <point x="355" y="20" type="line"/>
      <point x="64" y="294" type="line"/>
      <point x="51" y="280" type="line"/>
      <point x="346" y="0" type="line"/>
      <point x="360" y="0" type="line"/>
      <point x="655" y="280" type="line"/>
      <point x="642" y="294" type="line"/>
      <point x="351" y="20" type="line"/>
    </contour>
  </outline>
</glyph>
<glyph name="greaterequal" format="2">
  <advance width="643"/>
  <unicode hex="2265"/>
  <guideline x="539" y="365" angle="90"/>
  <outline>
    <contour>
      <point x="127" y="541" type="line"/>
      <point x="120" y="523" type="line"/>
      <point x="527" y="356" type="line"/>
      <point x="527" y="364" type="line"/>
      <point x="120" y="185" type="line"/>
      <point x="127" y="168" type="line"/>
      <point x="539" y="350" type="line"/>
      <point x="539" y="371" type="line"/>
    </contour>
    <contour>
      <point x="539" y="67" type="line"/>
      <point x="105" y="67" type="line"/>
      <point x="105" y="48" type="line"/>
      <point x="539" y="48" type="line"/>
    </contour>
  </outline>
</glyph>
<glyph name="downWhiteTriangle" format="2">
  <advance width="657"/>
  <unicode hex="25BD"/>
  <outline>
    <contour>
      <point x="327" y="88" type="line"/>
      <point x="555" y="479" type="line"/>
      <point x="101" y="480" type="line"/>
    </contour>
    <contour>
      <point x="332" y="118" type="line"/>
      <point x="130" y="466" type="line"/>
      <point x="127" y="460" type="line"/>
      <point x="530" y="460" type="line"/>
      <point x="527" y="466" type="line"/>
      <point x="324" y="118" type="line"/>
    </contour>
  </outline>
</glyph>
<glyph name="lozenge" format="2">
  <advance width="596"/>
  <unicode hex="25CA"/>
  <outline>
    <contour>
      <point x="308" y="692" type="line"/>
      <point x="288" y="692" type="line"/>
      <point x="70" y="348" type="line"/>
      <point x="288" y="0" type="line"/>
      <point x="308" y="0" type="line"/>
      <point x="526" y="348" type="line"/>
    </contour>
    <contour>
      <point x="293" y="683" type="line"/>
      <point x="509" y="340" type="line"/>
      <point x="509" y="356" type="line"/>
      <point x="293" y="8" type="line"/>
      <point x="303" y="8" type="line"/>
      <point x="87" y="356" type="line"/>
      <point x="87" y="340" type="line"/>
      <point x="303" y="683" type="line"/>
    </contour>
  </outline>
</glyph>
<glyph name="T_h" format="2">
  <advance width="1089"/>
  <outline>
    <contour>
      <point x="149" y="0" type="line"/>
      <point x="399" y="0" type="line"/>
      <point x="399" y="15" type="line"/>
      <point x="277" y="29" type="line"/>
      <point x="284" y="21" type="line"/>
      <point x="284" y="680" type="line"/>
      <point x="277" y="673" type="line"/>
      <point x="604" y="673" type="line"/>
      <point x="604" y="692" type="line"/>
      <point x="33" y="692" type="line"/>
      <point x="33" y="547" type="line"/>
      <point x="48" y="547" type="line"/>
      <point x="63" y="680" type="line"/>
      <point x="55" y="673" type="line"/>
      <point x="271" y="673" type="line"/>
      <point x="264" y="680" type="line"/>
      <point x="264" y="21" type="line"/>
      <point x="271" y="29" type="line"/>
      <point x="149" y="15" type="line"/>
    </contour>
    <contour>
      <point x="512" y="0" type="line"/>
      <point x="712" y="0" type="line"/>
      <point x="712" y="15" type="line"/>
      <point x="615" y="29" type="line"/>
      <point x="622" y="21" type="line"/>
      <point x="622" y="414" type="line"/>
      <point x="618" y="403" type="line"/>
      <point x="687" y="476"/>
      <point x="764" y="509"/>
      <point x="826" y="509" type="curve" smooth="yes"/>
      <point x="905" y="509"/>
      <point x="957" y="463"/>
      <point x="955" y="363" type="curve" smooth="yes"/>
      <point x="955" y="21" type="line"/>
      <point x="962" y="29" type="line"/>
      <point x="865" y="15" type="line"/>
      <point x="865" y="0" type="line"/>
      <point x="1065" y="0" type="line"/>
      <point x="1065" y="15" type="line"/>
      <point x="968" y="29" type="line"/>
      <point x="975" y="21" type="line"/>
      <point x="975" y="368" type="line" smooth="yes"/>
      <point x="977" y="477"/>
      <point x="915" y="528"/>
      <point x="827" y="528" type="curve" smooth="yes"/>
      <point x="762" y="528"/>
      <point x="685" y="497"/>
      <point x="618" y="427" type="curve"/>
      <point x="622" y="424" type="line"/>
      <point x="622" y="765" type="line"/>
      <point x="602" y="760" type="line"/>
      <point x="602" y="21" type="line"/>
      <point x="609" y="29" type="line"/>
      <point x="512" y="15" type="line"/>
    </contour>
  </outline>
</glyph>
<glyph name="acutecomb.loclPLK" format="2">
  <guideline x="153" y="637" angle="0"/>
  <guideline x="153" y="770" angle="0"/>
  <guideline x="5" y="724" angle="0"/>
  <guideline x="5" y="665" angle="0"/>
  <anchor x="108" y="522" name="_top"/>
  <anchor x="108" y="762" name="top"/>
  <outline>
    <contour>
      <point x="110" y="620" type="line"/>
      <point x="210" y="767" type="line"/>
      <point x="183" y="783" type="line"/>
      <point x="96" y="628" type="line"/>
    </contour>
  </outline>
</glyph>
<glyph name="braceright.case" format="2">
  <advance width="320"/>
  <guideline x="120" y="-94" angle="0"/>
  <outline>
    <contour>
      <point x="70" y="-94" type="curve" smooth="yes"/>
      <point x="41" y="-94" type="line"/>
      <point x="41" y="-78" type="line"/>
      <point x="139" y="-78"/>
      <point x="158" y="-59"/>
      <point x="158" y="31" type="curve" smooth="yes"/>
      <point x="158" y="241" type="line" smooth="yes"/>
      <point x="158" y="346"/>
      <point x="212" y="358"/>
      <point x="257" y="358" type="curve"/>
      <point x="257" y="350" type="line"/>
      <point x="212" y="350"/>
      <point x="158" y="362"/>
      <point x="158" y="467" type="curve" smooth="yes"/>
      <point x="158" y="673" type="line" smooth="yes"/>
      <point x="158" y="763"/>
      <point x="139" y="782"/>
      <point x="41" y="782" type="curve"/>
      <point x="41" y="798" type="line"/>
      <point x="70" y="798" type="line" smooth="yes"/>
      <point x="150" y="798"/>
      <point x="178" y="768"/>
      <point x="178" y="678" type="curve" smooth="yes"/>
      <point x="178" y="471" type="line" smooth="yes"/>
      <point x="178" y="409"/>
      <point x="199" y="364"/>
      <point x="270" y="364" type="curve"/>
      <point x="270" y="344" type="line"/>
      <point x="199" y="344"/>
      <point x="178" y="299"/>
      <point x="178" y="237" type="curve" smooth="yes"/>
      <point x="178" y="26" type="line" smooth="yes"/>
      <point x="178" y="-64"/>
      <point x="151" y="-94"/>
    </contour>
  </outline>
</glyph>
<glyph name="brevecomb_tildecomb.case" format="2">
  <guideline y="747"/>
  <guideline y="868"/>
  <guideline y="834"/>
  <guideline y="775"/>
  <guideline x="128" y="823" angle="90"/>
  <guideline x="352" y="823" angle="90"/>
  <anchor x="240" y="692" name="_top"/>
  <anchor x="240" y="920" name="top"/>
  <outline>
    <contour>
      <point x="126.60000000000001" y="853" type="line"/>
      <point x="142.8" y="885"/>
      <point x="159.0" y="898"/>
      <point x="180.6" y="898" type="curve" smooth="yes"/>
      <point x="223.8" y="898"/>
      <point x="253.5" y="856"/>
      <point x="296.7" y="856" type="curve" smooth="yes"/>
      <point x="323.7" y="856"/>
      <point x="347.1" y="871"/>
      <point x="366.0" y="914" type="curve"/>
      <point x="353.40000000000003" y="921" type="line"/>
      <point x="336.3" y="887"/>
      <point x="319.2" y="877"/>
      <point x="298.5" y="877" type="curve" smooth="yes"/>
      <point x="265.20000000000005" y="877"/>
      <point x="226.5" y="919"/>
      <point x="183.3" y="919" type="curve" smooth="yes"/>
      <point x="155.4" y="919"/>
      <point x="132.0" y="902"/>
      <point x="114.0" y="860" type="curve"/>
    </contour>
    <component base="brevecomb.case" xOffset="28" yOffset="-20"/>
  </outline>
</glyph>
<glyph name="circumflexcomb_acutecomb.case" format="2">
  <guideline x="344" y="955" angle="0"/>
  <guideline x="-26" y="747" angle="0"/>
  <guideline x="-26" y="868" angle="0"/>
  <guideline x="-26" y="834" angle="0"/>
  <guideline x="-26" y="775" angle="0"/>
  <guideline x="237" y="772" angle="90"/>
  <anchor x="237" y="692" name="_top"/>
  <anchor x="237" y="920" name="top"/>
  <outline>
    <contour>
      <point x="321.6577" y="828.2447000000001" type="line"/>
      <point x="439.56960000000004" y="923.2394" type="line"/>
      <point x="418.0231" y="944.7948" type="line"/>
      <point x="309.5976" y="842.1196" type="line"/>
    </contour>
    <component base="circumflexcomb.case" xOffset="20" yOffset="-10"/>
  </outline>
</glyph>
<glyph name="dblgravecomb.case" format="2">
  <guideline x="350" y="768" angle="0"/>
  <guideline x="350" y="868" angle="0"/>
  <guideline x="350" y="747" angle="0"/>
  <anchor x="200" y="692" name="_top"/>
  <anchor x="190" y="840" name="top"/>
  <outline>
    <contour>
      <point x="150" y="745" type="line"/>
      <point x="80" y="869" type="line"/>
      <point x="105" y="883" type="line"/>
      <point x="166" y="754" type="line"/>
    </contour>
    <contour>
      <point x="261" y="745" type="line"/>
      <point x="193" y="870" type="line"/>
      <point x="219" y="883" type="line"/>
      <point x="277" y="753" type="line"/>
    </contour>
  </outline>
</glyph>
<glyph name="exclamdown.sc" format="2">
  <advance width="270"/>
  <outline>
    <contour>
      <point x="146" y="411" type="line"/>
      <point x="126" y="409" type="line"/>
      <point x="124" y="-6" type="line"/>
      <point x="148" y="-6" type="line"/>
    </contour>
    <contour>
      <point x="160" y="542" type="curve" smooth="yes"/>
      <point x="160" y="558"/>
      <point x="150" y="568"/>
      <point x="135" y="568" type="curve" smooth="yes"/>
      <point x="122" y="568"/>
      <point x="110" y="558"/>
      <point x="110" y="542" type="curve" smooth="yes"/>
      <point x="110" y="526"/>
      <point x="120" y="516"/>
      <point x="135" y="516" type="curve" smooth="yes"/>
      <point x="148" y="516"/>
      <point x="160" y="526"/>
    </contour>
  </outline>
</glyph>
<glyph name="four.osf" format="2">
  <advance width="600"/>
  <outline>
    <contour>
      <point x="381" y="64" type="line"/>
      <point x="381" y="-119" type="line"/>
      <point x="401" y="-119" type="line"/>
      <point x="401" y="64" type="line"/>
      <point x="394" y="57" type="line"/>
      <point x="539" y="57" type="line"/>
      <point x="539" y="77" type="line"/>
      <point x="394" y="77" type="line"/>
      <point x="401" y="70" type="line"/>
      <point x="401" y="573" type="line"/>
      <point x="377" y="582" type="line"/>
      <point x="22" y="74" type="line"/>
      <point x="27" y="57" type="line"/>
      <point x="388" y="57" type="line"/>
    </contour>
    <contour>
      <point x="388" y="77" type="line"/>
      <point x="41" y="77" type="line"/>
      <point x="44" y="71" type="line"/>
      <point x="385" y="562" type="line"/>
      <point x="381" y="563" type="line"/>
      <point x="381" y="70" type="line"/>
    </contour>
  </outline>
</glyph>
<glyph name="guillemetleft.case" format="2">
  <advance width="461"/>
  <outline>
    <contour>
      <point x="368" y="551" type="line"/>
      <point x="380" y="541" type="line"/>
      <point x="241" y="354" type="line"/>
      <point x="241" y="368" type="line"/>
      <point x="380" y="182" type="line"/>
      <point x="368" y="172" type="line"/>
      <point x="226" y="351" type="line"/>
      <point x="226" y="372" type="line"/>
    </contour>
    <contour>
      <point x="209" y="551" type="line"/>
      <point x="221" y="541" type="line"/>
      <point x="82" y="354" type="line"/>
      <point x="82" y="368" type="line"/>
      <point x="221" y="182" type="line"/>
      <point x="209" y="172" type="line"/>
      <point x="67" y="351" type="line"/>
      <point x="67" y="372" type="line"/>
    </contour>
  </outline>
</glyph>
<glyph name="h.BRACKET.165" format="2">
  <advance width="621"/>
  <anchor x="304" y="0" name="bottom"/>
  <anchor x="304" y="261" name="center"/>
  <anchor x="304" y="762" name="top"/>
  <outline>
    <contour>
      <point x="38" y="0" type="line"/>
      <point x="238" y="0" type="line"/>
      <point x="238" y="15" type="line"/>
      <point x="141" y="29" type="line"/>
      <point x="148" y="21" type="line"/>
      <point x="148" y="414" type="line"/>
      <point x="144" y="403" type="line"/>
      <point x="213" y="476"/>
      <point x="290" y="509"/>
      <point x="352" y="509" type="curve" smooth="yes"/>
      <point x="431" y="509"/>
      <point x="483" y="463"/>
      <point x="481" y="363" type="curve" smooth="yes"/>
      <point x="481" y="0" type="line"/>
      <point x="591" y="0" type="line"/>
      <point x="591" y="15" type="line"/>
      <point x="494" y="29" type="line"/>
      <point x="501" y="21" type="line"/>
      <point x="501" y="368" type="line" smooth="yes"/>
      <point x="503" y="477"/>
      <point x="441" y="528"/>
      <point x="353" y="528" type="curve" smooth="yes"/>
      <point x="288" y="528"/>
      <point x="211" y="497"/>
      <point x="144" y="427" type="curve"/>
      <point x="148" y="424" type="line"/>
      <point x="148" y="765" type="line"/>
      <point x="38" y="760" type="line"/>
      <point x="38" y="745" type="line"/>
      <point x="135" y="731" type="line"/>
      <point x="128" y="739" type="line"/>
      <point x="128" y="21" type="line"/>
      <point x="135" y="29" type="line"/>
      <point x="38" y="15" type="line"/>
    </contour>
  </outline>
</glyph>
<glyph name="i.sc" format="2">
  <advance width="309"/>
  <anchor x="155" y="0" name="bottom"/>
  <anchor x="256" y="0" name="ogonek"/>
  <anchor x="155" y="568" name="top"/>
  <outline>
    <contour>
      <point x="256" y="554" type="line"/>
      <point x="256" y="568" type="line"/>
      <point x="53" y="564" type="line"/>
      <point x="53" y="550" type="line"/>
      <point x="151" y="542" type="line"/>
      <point x="145" y="549" type="line"/>
      <point x="145" y="19" type="line"/>
      <point x="151" y="26" type="line"/>
      <point x="53" y="14" type="line"/>
      <point x="53" y="0" type="line"/>
      <point x="256" y="0" type="line"/>
      <point x="256" y="14" type="line"/>
      <point x="158" y="26" type="line"/>
      <point x="165" y="19" type="line"/>
      <point x="165" y="549" type="line"/>
      <point x="158" y="542" type="line"/>
    </contour>
  </outline>
</glyph>
<glyph name="n.sc" format="2">
  <advance width="733"/>
  <anchor x="369" y="0" name="bottom"/>
  <anchor x="379" y="568" name="top"/>
  <outline>
    <contour>
      <point x="477" y="564" type="line"/>
      <point x="477" y="550" type="line"/>
      <point x="586" y="543" type="line"/>
      <point x="581" y="550" type="line"/>
      <point x="581" y="23" type="line"/>
      <point x="589" y="23" type="line"/>
      <point x="170" y="568" type="line"/>
      <point x="55" y="564" type="line"/>
      <point x="55" y="550" type="line"/>
      <point x="151" y="542" type="line"/>
      <point x="144" y="549" type="line"/>
      <point x="144" y="19" type="line"/>
      <point x="151" y="26" type="line"/>
      <point x="55" y="14" type="line"/>
      <point x="55" y="0" type="line"/>
      <point x="268" y="0" type="line"/>
      <point x="268" y="14" type="line"/>
      <point x="158" y="26" type="line"/>
      <point x="164" y="19" type="line"/>
      <point x="164" y="551" type="line"/>
      <point x="156" y="551" type="line"/>
      <point x="579" y="0" type="line"/>
      <point x="601" y="0" type="line"/>
      <point x="601" y="549" type="line"/>
      <point x="594" y="542" type="line"/>
      <point x="690" y="554" type="line"/>
      <point x="690" y="568" type="line"/>
    </contour>
  </outline>
</glyph>
<glyph name="three.osf" format="2">
  <advance width="533"/>
  <outline>
    <contour>
      <point x="217" y="-129" type="curve" smooth="yes"/>
      <point x="343" y="-129"/>
      <point x="438" y="-61"/>
      <point x="438" y="68" type="curve" smooth="yes"/>
      <point x="438" y="168"/>
      <point x="380" y="236"/>
      <point x="263" y="244" type="curve"/>
      <point x="263" y="243" type="line"/>
      <point x="376" y="260"/>
      <point x="422" y="315"/>
      <point x="422" y="408" type="curve" smooth="yes"/>
      <point x="422" y="526"/>
      <point x="344" y="574"/>
      <point x="237" y="574" type="curve" smooth="yes"/>
      <point x="182" y="574"/>
      <point x="112" y="560"/>
      <point x="46" y="537" type="curve"/>
      <point x="53" y="403" type="line"/>
      <point x="68" y="403" type="line"/>
      <point x="79" y="535" type="line"/>
      <point x="73" y="527" type="line"/>
      <point x="127" y="544"/>
      <point x="185" y="555"/>
      <point x="232" y="555" type="curve" smooth="yes"/>
      <point x="328" y="555"/>
      <point x="400" y="513"/>
      <point x="400" y="407" type="curve" smooth="yes"/>
      <point x="400" y="312"/>
      <point x="341" y="254"/>
      <point x="219" y="254" type="curve" smooth="yes"/>
      <point x="134" y="254" type="line"/>
      <point x="134" y="234" type="line"/>
      <point x="214" y="234" type="line" smooth="yes"/>
      <point x="363" y="234"/>
      <point x="417" y="158"/>
      <point x="417" y="66" type="curve" smooth="yes"/>
      <point x="417" y="-51"/>
      <point x="331" y="-109"/>
      <point x="220" y="-109" type="curve" smooth="yes"/>
      <point x="159" y="-109"/>
      <point x="95" y="-90"/>
      <point x="37" y="-53" type="curve"/>
      <point x="27" y="-72" type="line"/>
      <point x="87" y="-111"/>
      <point x="155" y="-129"/>
    </contour>
  </outline>
</glyph>
<glyph name="verticalbar-cy" format="2">
  <advance width="420"/>
  <outline>
    <contour>
      <point x="200" y="143" type="line"/>
      <point x="220" y="143" type="line"/>
      <point x="220" y="412" type="line"/>
      <point x="200" y="412" type="line"/>
    </contour>
  </outline>
</glyph>
